<?xml version="1.0" encoding="utf-8"?>
<!-- Generator: Adobe Illustrator 19.0.0, SVG Export Plug-In . SVG Version: 6.00 Build 0)  -->
<svg version="1.1" id="Capa_1" xmlns="http://www.w3.org/2000/svg" xmlns:xlink="http://www.w3.org/1999/xlink" x="0px" y="0px"
	 viewBox="-174 285 929.6 147" style="enable-background:new -174 285 929.6 147;" xml:space="preserve">
<style type="text/css">
	.st0{fill:#FFFFFF;}
</style>
<g>
	<path class="st0" d="M-46.4,325c-5.7,0.1-9.7,4.4-9.7,10.9l0.3,34.8c0.1,8.1-6,12.7-12.5,12.7c-6.5,0.1-12.6-4.4-12.7-12.5
		l-0.3-34.8c-0.1-6.5-4.2-10.8-9.9-10.8c-5.7,0.1-9.7,4.4-9.7,10.9l0.3,35.2c0.2,17.3,11.8,28.4,32.4,28.2
		c20.6-0.2,32-11.4,31.9-28.7l-0.3-35.2C-36.6,329.2-40.7,324.9-46.4,325z"/>
	<path class="st0" d="M-121,378.2c-2.3,0-9.6,4.2-14.5,4.2c-10.6,0.1-16.5-9.9-16.6-19.5c-0.1-10,5.1-20,16.2-20.1
		c6.2-0.1,10.6,3.7,15.5,3.7c4.6,0,7.4-5.4,7.4-9.4c-0.1-9.5-16.2-12.2-24-12.1c-20.6,0.2-34.8,18.3-34.6,38.1
		c0.2,20.3,14.3,37.4,35.3,37.2c7-0.1,23.8-3.6,23.7-13.6C-112.6,382-116.4,378.1-121,378.2z"/>
	<path class="st0" d="M193.1,291.4c-5.7,0.1-9.7,4.4-9.7,10.9l0.7,83.5c0.1,6.5,4.2,10.8,9.9,10.8c5.7-0.1,9.7-4.4,9.7-10.9
		l-0.7-83.5C202.9,295.7,198.8,291.4,193.1,291.4z"/>
	<path class="st0" d="M138.8,322.5c-7.3,0.1-14.9,3.1-18.5,9.1c-1.3-5.1-4.4-8.1-9.8-8c-5.7,0.1-9.7,4.4-9.7,10.9l0.7,80.8
		c0.1,6.5,4.2,10.8,9.8,10.8c5.7-0.1,9.7-4.4,9.7-10.9l-0.2-23.8c5.2,4.4,11.8,6.7,17.9,6.6c19.6-0.2,32-18.6,31.8-37
		C170.4,341.9,159.8,322.3,138.8,322.5z M136,380c-10.7,0.1-15.4-10.7-15.5-20.2c-0.1-9.5,4.7-19.3,15.1-19.4
		c10.2-0.1,15.3,10.6,15.4,19.8C151.1,369.3,146.2,379.9,136,380z"/>
	<path class="st0" d="M57.5,323.2c-6.6,0.1-15.1,3.8-20.5,10.1c-5.2-6.5-12.1-9.8-20.3-9.7c-7.2,0.1-13.4,3.1-18.1,8.3
		c-0.7-4.6-4-7.3-9-7.2c-5.7,0.1-9.7,4.4-9.7,10.9l0.5,52c0.1,6.5,4.2,10.8,9.8,10.8c5.7-0.1,9.7-4.4,9.7-10.9l-0.3-34
		C-0.4,345.6,3,340,11,339.9c7-0.1,11.4,5.5,11.5,13.3l0.3,34c0.1,6.5,4.2,10.8,9.9,10.8c5.7-0.1,9.7-4.4,9.7-10.9L42,353
		c-0.1-7.9,4.2-13.5,11.4-13.5c7-0.1,11.4,5.5,11.5,13.3l0.3,34c0.1,6.5,4.2,10.8,9.9,10.8c5.7-0.1,9.7-4.4,9.7-10.9l-0.3-37.4
		C84.3,332.2,73.4,323.1,57.5,323.2z"/>
	<path class="st0" d="M320.6,334c-4.8-1.8-10.2,0.6-12,5.4c-3.4,9.1-8.6,16.4-14.4,22c15.2-21.4,15.7-48.1,15.7-49.4
		c0.1-5.1-4.1-9.3-9.2-9.4c-5.2-0.1-9.3,4.1-9.4,9.2c0,0.2-0.2,13.2-5.7,26.7c2.8-19.8-1.5-37.7-1.7-38.5c-1.2-5-6.3-8-11.2-6.8
		c-5,1.2-8,6.2-6.8,11.2c0,0.1,2.2,9.2,2.1,20.7c-4.6-2.4-10-3.8-16.2-3.7c-12.9,0.1-23.4,6.4-29.5,17.6c-2.4,4.5-0.8,10.2,3.8,12.6
		c4.5,2.4,10.2,0.8,12.6-3.7c2.9-5.3,7.2-7.8,13.3-7.9c12.8-0.1,16.3,12.1,16.4,19.3c0.1,7.1-3.3,19.1-16.1,19.2
		c-10.3,0.1-15.7-9.9-16.3-17.1c-0.4-5.1-4.9-8.9-10-8.5c-5.1,0.4-8.9,4.9-8.5,10c1.3,15.2,12.9,31.2,30.6,33.8
		c2.5,0.4,5.2,0.6,8,0.6c24.3-0.2,57-16.9,70-51.4C327.8,341.2,325.4,335.8,320.6,334z"/>
	<path class="st0" d="M412.2,345h-20.6c-0.8,0-1.6,0.7-1.6,1.6s0.7,1.5,1.6,1.5h8.6v25.1c0,0.9,0.8,1.7,1.7,1.7s1.7-0.8,1.7-1.7
		v-25.1h8.6c0.8,0,1.6-0.7,1.6-1.5S413.1,345,412.2,345z"/>
	<path class="st0" d="M439.7,346.1c-0.4-0.9-1.1-1.5-2.1-1.5h-0.2c-1.1,0-1.7,0.6-2.1,1.5l-12,26.3c-0.2,0.3-0.2,0.6-0.2,0.9
		c0,0.8,0.7,1.5,1.5,1.5c0.8,0,1.3-0.4,1.6-1.1l3.1-6.9h16.3l3.1,6.8c0.3,0.7,0.8,1.2,1.7,1.2c0.9,0,1.6-0.7,1.6-1.6
		c0-0.3-0.1-0.6-0.2-0.8L439.7,346.1z M430.6,363.8l6.8-15.2l6.8,15.2H430.6z"/>
	<path class="st0" d="M477.4,358.2c-6.5-1.4-8.1-3-8.1-5.8v-0.1c0-2.7,2.5-4.8,6.3-4.8c2.8,0,5.2,0.8,7.7,2.6c0.3,0.2,0.6,0.3,1,0.3
		c0.9,0,1.6-0.7,1.6-1.6c0-0.6-0.4-1.1-0.7-1.4c-2.7-1.9-5.6-2.9-9.4-2.9c-5.6,0-9.7,3.4-9.7,8.1v0.1c0,4.9,3.1,7.1,10,8.6
		c6.2,1.3,7.7,2.9,7.7,5.6v0.1c0,2.9-2.6,5-6.6,5c-3.8,0-6.6-1.1-9.4-3.5c-0.2-0.2-0.6-0.4-1-0.4c-0.9,0-1.6,0.7-1.6,1.7
		c0,0.6,0.3,1,0.6,1.3c3.3,2.6,6.9,4,11.2,4c5.9,0,10.1-3.3,10.1-8.4v-0.1C487,362.1,484,359.7,477.4,358.2z"/>
	<path class="st0" d="M516.8,346.1c-0.4-0.9-1.1-1.5-2.1-1.5h-0.2c-1.1,0-1.7,0.6-2.1,1.5l-12,26.3c-0.2,0.3-0.2,0.6-0.2,0.9
		c0,0.8,0.7,1.5,1.5,1.5c0.8,0,1.3-0.4,1.6-1.1l3.1-6.9h16.3l3.1,6.8c0.3,0.7,0.8,1.2,1.7,1.2c0.9,0,1.6-0.7,1.6-1.6
		c0-0.3-0.1-0.6-0.2-0.8L516.8,346.1z M507.7,363.8l6.8-15.2l6.8,15.2H507.7z"/>
	<path class="st0" d="M579.8,344.8c-0.9,0-1.7,0.8-1.7,1.7v18.4c0,4.7-2.5,7.1-5.8,7.1c-2.8,0-4.5-1.1-6.1-3.3
		c-0.3-0.3-0.6-0.6-1.2-0.6c-0.9,0-1.7,0.8-1.7,1.7c0,0.5,0.2,0.9,0.5,1.1c1.8,2.5,4.5,4.2,8.4,4.2c2.6,0,4.9-0.8,6.5-2.5
		c1.7-1.7,2.7-4.3,2.7-7.8v-18.3C581.5,345.5,580.7,344.8,579.8,344.8z"/>
	<path class="st0" d="M620.9,344.8c-0.9,0-1.7,0.8-1.7,1.7v15.8c0,6.5-3.5,9.8-8.9,9.8c-5.6,0-9.1-3.6-9.1-10v-15.6
		c0-0.9-0.8-1.7-1.7-1.7c-0.9,0-1.7,0.8-1.7,1.7v15.8c0,8.4,5,12.9,12.3,12.9c7.4,0,12.4-4.5,12.4-13.1v-15.5
		C622.5,345.5,621.8,344.8,620.9,344.8z"/>
	<path class="st0" d="M650,358.2c-6.5-1.4-8.1-3-8.1-5.8v-0.1c0-2.7,2.5-4.8,6.3-4.8c2.8,0,5.2,0.8,7.7,2.6c0.3,0.2,0.6,0.3,1,0.3
		c0.9,0,1.6-0.7,1.6-1.6c0-0.6-0.4-1.1-0.7-1.4c-2.7-1.9-5.6-2.9-9.4-2.9c-5.6,0-9.7,3.4-9.7,8.1v0.1c0,4.9,3.1,7.1,10,8.6
		c6.2,1.3,7.7,2.9,7.7,5.6v0.1c0,2.9-2.6,5-6.6,5c-3.8,0-6.6-1.1-9.4-3.5c-0.2-0.2-0.6-0.4-1-0.4c-0.9,0-1.6,0.7-1.6,1.7
		c0,0.6,0.3,1,0.6,1.3c3.3,2.6,6.9,4,11.2,4c5.9,0,10.1-3.3,10.1-8.4v-0.1C659.6,362.1,656.6,359.7,650,358.2z"/>
	<path class="st0" d="M694.6,345H674c-0.8,0-1.6,0.7-1.6,1.6s0.7,1.5,1.6,1.5h8.6v25.1c0,0.9,0.8,1.7,1.7,1.7s1.7-0.8,1.7-1.7v-25.1
		h8.6c0.8,0,1.6-0.7,1.6-1.5S695.4,345,694.6,345z"/>
	<path class="st0" d="M722,346.1c-0.4-0.9-1.1-1.5-2.1-1.5h-0.2c-1.1,0-1.7,0.6-2.1,1.5l-12,26.3c-0.2,0.3-0.2,0.6-0.2,0.9
		c0,0.8,0.7,1.5,1.5,1.5c0.8,0,1.3-0.4,1.6-1.1l3.1-6.9h16.3l3.1,6.8c0.3,0.7,0.8,1.2,1.7,1.2c0.9,0,1.6-0.7,1.6-1.6
		c0-0.3-0.1-0.6-0.2-0.8L722,346.1z M712.9,363.8l6.8-15.2l6.8,15.2H712.9z"/>
	<path class="st0" d="M750.6,370c-1.2,0-2,0.8-2,2v0.8c0,1.1,0.8,2,2,2c1.1,0,2-0.9,2-2V372C752.6,370.8,751.7,370,750.6,370z"/>
	<path class="st0" d="M360.5,321.6c-0.9,0-1.6,0.7-1.6,1.6V395c0,0.9,0.7,1.6,1.6,1.6s1.6-0.7,1.6-1.6v-71.9
		C362.1,322.3,361.4,321.6,360.5,321.6z"/>
</g>
</svg>
